<?xml version="1.0" encoding="UTF-8"?>
<svg xmlns="http://www.w3.org/2000/svg" xmlns:xlink="http://www.w3.org/1999/xlink" width="60px" height="60px" viewBox="0 0 60 60" version="1.1">
<g id="surface1">
<path style=" stroke:none;fill-rule:nonzero;fill:rgb(0%,0%,0%);fill-opacity:1;" d="M 29.78125 32.328125 C 29.84375 32.328125 29.90625 32.328125 29.980469 32.328125 C 30.007812 32.328125 30.03125 32.328125 30.054688 32.328125 C 30.09375 32.328125 30.144531 32.328125 30.179688 32.328125 C 33.820312 32.265625 36.765625 30.988281 38.941406 28.539062 C 43.722656 23.148438 42.929688 13.902344 42.839844 13.019531 C 42.53125 6.398438 39.398438 3.230469 36.816406 1.75 C 34.890625 0.644531 32.640625 0.0507812 30.128906 0 L 30.042969 0 C 30.03125 0 30.007812 0 29.992188 0 L 29.917969 0 C 28.539062 0 25.832031 0.222656 23.234375 1.703125 C 20.625 3.179688 17.445312 6.347656 17.132812 13.019531 C 17.046875 13.902344 16.25 23.148438 21.035156 28.539062 C 23.199219 30.988281 26.140625 32.265625 29.78125 32.328125 Z M 20.453125 13.332031 C 20.453125 13.292969 20.464844 13.257812 20.464844 13.234375 C 20.875 4.324219 27.199219 3.367188 29.90625 3.367188 L 29.957031 3.367188 C 29.980469 3.367188 30.019531 3.367188 30.054688 3.367188 C 33.410156 3.441406 39.113281 4.808594 39.5 13.234375 C 39.5 13.269531 39.5 13.308594 39.511719 13.332031 C 39.523438 13.417969 40.394531 21.867188 36.441406 26.316406 C 34.875 28.082031 32.789062 28.949219 30.042969 28.976562 C 30.019531 28.976562 30.007812 28.976562 29.980469 28.976562 C 29.957031 28.976562 29.945312 28.976562 29.917969 28.976562 C 27.1875 28.949219 25.085938 28.082031 23.53125 26.316406 C 19.59375 21.894531 20.4375 13.40625 20.453125 13.332031 Z M 20.453125 13.332031 "/>
<path style=" stroke:none;fill-rule:nonzero;fill:rgb(0%,0%,0%);fill-opacity:1;" d="M 55.515625 47.660156 C 55.515625 47.648438 55.515625 47.636719 55.515625 47.625 C 55.515625 47.523438 55.503906 47.425781 55.503906 47.3125 C 55.425781 44.855469 55.265625 39.101562 49.875 37.261719 C 49.835938 37.25 49.785156 37.238281 49.75 37.226562 C 44.144531 35.796875 39.488281 32.566406 39.4375 32.527344 C 38.679688 31.996094 37.636719 32.179688 37.101562 32.9375 C 36.566406 33.695312 36.753906 34.738281 37.511719 35.273438 C 37.722656 35.421875 42.667969 38.863281 48.855469 40.457031 C 51.75 41.488281 52.074219 44.582031 52.160156 47.414062 C 52.160156 47.523438 52.160156 47.625 52.171875 47.722656 C 52.183594 48.84375 52.109375 50.570312 51.910156 51.5625 C 49.898438 52.707031 42.007812 56.65625 30.007812 56.65625 C 18.054688 56.65625 10.113281 52.695312 8.089844 51.550781 C 7.890625 50.558594 7.804688 48.828125 7.828125 47.710938 C 7.828125 47.613281 7.839844 47.511719 7.839844 47.402344 C 7.925781 44.566406 8.25 41.472656 11.144531 40.441406 C 17.332031 38.851562 22.277344 35.398438 22.488281 35.261719 C 23.246094 34.726562 23.433594 33.683594 22.898438 32.925781 C 22.363281 32.167969 21.320312 31.980469 20.5625 32.515625 C 20.511719 32.554688 15.878906 35.785156 10.25 37.210938 C 10.199219 37.226562 10.164062 37.238281 10.125 37.25 C 4.734375 39.101562 4.574219 44.855469 4.496094 47.300781 C 4.496094 47.414062 4.496094 47.511719 4.484375 47.613281 C 4.484375 47.625 4.484375 47.636719 4.484375 47.648438 C 4.472656 48.296875 4.460938 51.613281 5.117188 53.277344 C 5.242188 53.601562 5.46875 53.875 5.765625 54.0625 C 6.136719 54.308594 15.070312 60 30.019531 60 C 44.964844 60 53.898438 54.296875 54.273438 54.0625 C 54.558594 53.875 54.792969 53.601562 54.917969 53.277344 C 55.539062 51.625 55.527344 48.308594 55.515625 47.660156 Z M 55.515625 47.660156 "/>
</g>
</svg>
