<svg width="12" height="12" viewBox="0 0 12 12" fill="none" xmlns="http://www.w3.org/2000/svg">
<path d="M8 0L12 4V10.6562C12 11.0312 11.8646 11.3542 11.5938 11.625C11.3438 11.875 11.0312 12 10.6562 12H1.3125C0.958333 12 0.645833 11.875 0.375 11.625C0.125 11.3542 0 11.0312 0 10.6562V1.34375C0 0.96875 0.125 0.65625 0.375 0.40625C0.645833 0.135417 0.96875 0 1.34375 0H8ZM3.34375 9.34375C3.51042 9.34375 3.65625 9.28125 3.78125 9.15625C3.92708 9.01042 4 8.84375 4 8.65625C4 8.48958 3.92708 8.34375 3.78125 8.21875C3.65625 8.07292 3.51042 8 3.34375 8C3.15625 8 2.98958 8.07292 2.84375 8.21875C2.71875 8.34375 2.65625 8.48958 2.65625 8.65625C2.65625 8.84375 2.71875 9.01042 2.84375 9.15625C2.98958 9.28125 3.15625 9.34375 3.34375 9.34375ZM3.34375 6.65625C3.51042 6.65625 3.65625 6.59375 3.78125 6.46875C3.92708 6.34375 4 6.1875 4 6C4 5.8125 3.92708 5.65625 3.78125 5.53125C3.65625 5.40625 3.51042 5.34375 3.34375 5.34375C3.15625 5.34375 2.98958 5.40625 2.84375 5.53125C2.71875 5.65625 2.65625 5.8125 2.65625 6C2.65625 6.1875 2.71875 6.34375 2.84375 6.46875C2.98958 6.59375 3.15625 6.65625 3.34375 6.65625ZM3.34375 4C3.51042 4 3.65625 3.9375 3.78125 3.8125C3.92708 3.66667 4 3.51042 4 3.34375C4 3.15625 3.92708 3 3.78125 2.875C3.65625 2.72917 3.51042 2.65625 3.34375 2.65625C3.15625 2.65625 2.98958 2.72917 2.84375 2.875C2.71875 3 2.65625 3.15625 2.65625 3.34375C2.65625 3.51042 2.71875 3.66667 2.84375 3.8125C2.98958 3.9375 3.15625 4 3.34375 4ZM7.34375 4.65625H11L7.34375 1V4.65625Z" fill="#00195F"/>
</svg>
