<svg width="14" height="14" viewBox="0 0 14 14" fill="none" xmlns="http://www.w3.org/2000/svg">
<path d="M3.6875 10.9688C4.60417 11.8854 5.70833 12.3438 7 12.3438C8.29167 12.3438 9.38542 11.8854 10.2812 10.9688C11.1979 10.0521 11.6562 8.94792 11.6562 7.65625C11.6562 6.36458 11.1979 5.27083 10.2812 4.375C9.38542 3.45833 8.29167 3 7 3C5.70833 3 4.60417 3.45833 3.6875 4.375C2.79167 5.27083 2.34375 6.36458 2.34375 7.65625C2.34375 8.94792 2.79167 10.0521 3.6875 10.9688ZM2.75 3.4375C3.91667 2.25 5.33333 1.65625 7 1.65625C8.66667 1.65625 10.0833 2.25 11.25 3.4375C12.4167 4.60417 13 6.01042 13 7.65625C13 9.30208 12.4167 10.7188 11.25 11.9062C10.0833 13.0729 8.66667 13.6562 7 13.6562C5.33333 13.6562 3.91667 13.0729 2.75 11.9062C1.58333 10.7188 1 9.30208 1 7.65625C1 6.01042 1.58333 4.60417 2.75 3.4375ZM7.34375 4.34375V7.84375L10 9.40625L9.5 10.2188L6.34375 8.34375V4.34375H7.34375ZM4.25 1.25L1.1875 3.8125L0.34375 2.8125L3.40625 0.25L4.25 1.25ZM13.6562 2.8125L12.8125 3.84375L9.75 1.25L10.5938 0.25L13.6562 2.8125Z" fill="#A7AECA"/>
</svg>
