<?xml version="1.0" encoding="UTF-8"?>
<svg xmlns="http://www.w3.org/2000/svg" xmlns:xlink="http://www.w3.org/1999/xlink" width="60px" height="60px" viewBox="0 0 60 60" version="1.1">
<g id="surface1">
<path style=" stroke:none;fill-rule:nonzero;fill:rgb(0%,0%,0%);fill-opacity:1;" d="M 0 57.03125 C 0 58.132812 0.894531 59.027344 1.996094 59.027344 L 58.003906 59.027344 C 59.105469 59.027344 60 58.132812 60 57.03125 L 60 2.96875 C 60 1.867188 59.105469 0.972656 58.003906 0.972656 L 1.996094 0.972656 C 0.894531 0.972656 0 1.867188 0 2.96875 Z M 3.992188 4.964844 L 56.007812 4.964844 L 56.007812 37.214844 L 28.703125 37.214844 L 28.703125 30.15625 L 36.363281 22.558594 C 36.742188 22.183594 36.953125 21.675781 36.953125 21.144531 C 36.957031 20.613281 36.746094 20.101562 36.371094 19.726562 L 36.316406 19.671875 L 47.671875 11.15625 C 48.550781 10.496094 48.730469 9.242188 48.070312 8.359375 C 47.410156 7.480469 46.15625 7.300781 45.273438 7.960938 L 33.460938 16.820312 L 33.074219 16.433594 C 32.429688 15.789062 31.429688 15.664062 30.644531 16.128906 L 26.660156 18.488281 C 26.875 17.746094 26.988281 16.960938 26.988281 16.148438 C 26.988281 11.414062 23.136719 7.5625 18.402344 7.5625 C 13.667969 7.5625 9.816406 11.414062 9.816406 16.148438 C 9.816406 18.113281 10.480469 19.921875 11.59375 21.371094 C 9.632812 23.082031 9.101562 25.683594 8.886719 26.742188 C 8.324219 29.492188 8.25 33.078125 8.238281 37.214844 L 3.992188 37.214844 Z M 18.402344 20.742188 C 15.871094 20.742188 13.8125 18.679688 13.8125 16.148438 C 13.8125 13.617188 15.871094 11.554688 18.402344 11.554688 C 20.9375 11.554688 22.996094 13.617188 22.996094 16.148438 C 22.996094 18.679688 20.9375 20.742188 18.402344 20.742188 Z M 12.796875 27.539062 C 13.082031 26.144531 13.460938 25.277344 13.894531 24.734375 L 23.410156 24.734375 C 23.769531 24.734375 24.121094 24.636719 24.429688 24.453125 L 31.347656 20.351562 L 32.128906 21.132812 L 25.300781 27.910156 C 24.921875 28.285156 24.707031 28.792969 24.707031 29.324219 L 24.707031 37.210938 L 12.230469 37.210938 C 12.242188 33.296875 12.3125 29.929688 12.796875 27.539062 Z M 56.007812 41.207031 L 56.007812 55.035156 L 3.992188 55.035156 L 3.992188 41.207031 Z M 56.007812 41.207031 "/>
<path style=" stroke:none;fill-rule:nonzero;fill:rgb(0%,0%,0%);fill-opacity:1;" d="M 52.121094 45.898438 L 16.183594 45.898438 L 16.183594 45.285156 C 16.183594 44.179688 15.289062 43.289062 14.1875 43.289062 C 13.085938 43.289062 12.191406 44.179688 12.191406 45.285156 L 12.191406 45.898438 L 7.878906 45.898438 C 6.773438 45.898438 5.882812 46.792969 5.882812 47.894531 C 5.882812 48.996094 6.773438 49.890625 7.878906 49.890625 L 12.191406 49.890625 L 12.191406 50.507812 C 12.191406 51.609375 13.085938 52.503906 14.1875 52.503906 C 15.289062 52.503906 16.183594 51.609375 16.183594 50.507812 L 16.183594 49.890625 L 52.121094 49.890625 C 53.226562 49.890625 54.117188 48.996094 54.117188 47.894531 C 54.117188 46.792969 53.226562 45.898438 52.121094 45.898438 Z M 52.121094 45.898438 "/>
</g>
</svg>
