<svg width="45" height="46" viewBox="0 0 45 46" fill="none" xmlns="http://www.w3.org/2000/svg">
<path d="M39.9609 0.5C41.3672 0.5 42.5391 1.00781 43.4766 2.02344C44.4922 2.96094 45 4.13281 45 5.53906V40.4609C45 41.8672 44.4922 43.0781 43.4766 44.0938C42.5391 45.0312 41.3672 45.5 39.9609 45.5H5.03906C3.63281 45.5 2.42188 45.0312 1.40625 44.0938C0.46875 43.0781 0 41.8672 0 40.4609V5.53906C0 4.13281 0.46875 2.96094 1.40625 2.02344C2.42188 1.00781 3.63281 0.5 5.03906 0.5H39.9609ZM15 35.5391V23H9.96094V35.5391H15ZM24.9609 35.5391V28.0391H20.0391V35.5391H24.9609ZM24.9609 23V17.9609H20.0391V23H24.9609ZM35.0391 35.5391V10.4609H30V35.5391H35.0391Z" fill="#757575"/>
</svg>
