<?xml version="1.0" encoding="UTF-8"?>
<svg xmlns="http://www.w3.org/2000/svg" xmlns:xlink="http://www.w3.org/1999/xlink" width="60px" height="60px" viewBox="0 0 60 60" version="1.1">
<g id="surface1">
<path style=" stroke:none;fill-rule:nonzero;fill:rgb(0%,0%,0%);fill-opacity:1;" d="M 46.261719 2.726562 L 36.914062 2.726562 L 36.53125 1.019531 C 36.402344 0.421875 35.875 0 35.265625 0 L 24.734375 0 C 24.125 0 23.597656 0.421875 23.464844 1.019531 L 23.085938 2.726562 L 13.738281 2.726562 C 10.316406 2.726562 7.535156 5.507812 7.535156 8.925781 L 7.535156 53.796875 C 7.535156 57.21875 10.316406 60 13.738281 60 L 46.261719 60 C 49.679688 60 52.464844 57.21875 52.464844 53.796875 L 52.464844 8.925781 C 52.464844 5.507812 49.679688 2.726562 46.261719 2.726562 Z M 48.410156 53.796875 C 48.410156 54.984375 47.445312 55.945312 46.261719 55.945312 L 13.738281 55.945312 C 12.554688 55.945312 11.589844 54.984375 11.589844 53.796875 L 11.589844 8.925781 C 11.589844 7.742188 12.554688 6.777344 13.738281 6.777344 L 22.1875 6.777344 L 21.972656 7.75 C 21.882812 8.132812 21.980469 8.539062 22.222656 8.84375 C 22.472656 9.152344 22.847656 9.332031 23.238281 9.332031 L 36.761719 9.332031 C 37.152344 9.332031 37.527344 9.152344 37.773438 8.84375 C 38.019531 8.535156 38.117188 8.132812 38.027344 7.75 L 37.8125 6.777344 L 46.261719 6.777344 C 47.445312 6.777344 48.410156 7.742188 48.410156 8.925781 Z M 48.410156 53.796875 "/>
<path style=" stroke:none;fill-rule:nonzero;fill:rgb(0%,0%,0%);fill-opacity:1;" d="M 21.773438 24.015625 L 27.285156 24.015625 L 25.976562 23.121094 C 24.125 21.859375 23.652344 19.335938 24.914062 17.488281 C 26.175781 15.640625 28.699219 15.164062 30.546875 16.425781 L 30.761719 16.574219 L 30.761719 15.027344 C 30.761719 14.023438 29.949219 13.210938 28.949219 13.210938 L 21.773438 13.210938 C 20.773438 13.210938 19.957031 14.023438 19.957031 15.027344 L 19.957031 22.199219 C 19.957031 23.203125 20.773438 24.015625 21.773438 24.015625 Z M 21.773438 24.015625 "/>
<path style=" stroke:none;fill-rule:nonzero;fill:rgb(0%,0%,0%);fill-opacity:1;" d="M 38.652344 14.058594 L 32.296875 20.074219 L 29.402344 18.101562 C 28.484375 17.46875 27.21875 17.707031 26.585938 18.628906 C 25.957031 19.554688 26.191406 20.816406 27.121094 21.445312 L 31.359375 24.34375 C 31.707031 24.582031 32.105469 24.695312 32.503906 24.695312 C 33.007812 24.695312 33.507812 24.507812 33.894531 24.140625 L 41.4375 17.003906 C 42.25 16.234375 42.285156 14.949219 41.515625 14.136719 C 40.746094 13.324219 39.464844 13.289062 38.652344 14.058594 Z M 38.652344 14.058594 "/>
<path style=" stroke:none;fill-rule:nonzero;fill:rgb(0%,0%,0%);fill-opacity:1;" d="M 21.773438 37.9375 L 27.289062 37.9375 L 25.976562 37.042969 C 24.125 35.78125 23.652344 33.257812 24.914062 31.410156 C 26.175781 29.5625 28.699219 29.085938 30.546875 30.347656 L 30.761719 30.496094 L 30.761719 28.949219 C 30.761719 27.945312 29.949219 27.132812 28.949219 27.132812 L 21.773438 27.132812 C 20.773438 27.132812 19.957031 27.945312 19.957031 28.949219 L 19.957031 36.121094 C 19.957031 37.125 20.773438 37.9375 21.773438 37.9375 Z M 21.773438 37.9375 "/>
<path style=" stroke:none;fill-rule:nonzero;fill:rgb(0%,0%,0%);fill-opacity:1;" d="M 38.652344 27.984375 L 32.296875 33.996094 L 29.402344 32.023438 C 28.484375 31.390625 27.21875 31.628906 26.585938 32.554688 C 25.957031 33.476562 26.191406 34.738281 27.121094 35.371094 L 31.359375 38.265625 C 31.707031 38.503906 32.105469 38.621094 32.503906 38.621094 C 33.007812 38.621094 33.507812 38.429688 33.894531 38.0625 L 41.4375 30.925781 C 42.25 30.15625 42.285156 28.875 41.515625 28.0625 C 40.746094 27.25 39.464844 27.214844 38.652344 27.984375 Z M 38.652344 27.984375 "/>
<path style=" stroke:none;fill-rule:nonzero;fill:rgb(0%,0%,0%);fill-opacity:1;" d="M 28.949219 41.054688 L 21.773438 41.054688 C 20.773438 41.054688 19.957031 41.871094 19.957031 42.871094 L 19.957031 50.042969 C 19.957031 51.046875 20.773438 51.859375 21.773438 51.859375 L 28.949219 51.859375 C 29.949219 51.859375 30.761719 51.046875 30.761719 50.042969 L 30.761719 42.871094 C 30.761719 41.871094 29.949219 41.054688 28.949219 41.054688 Z M 28.949219 41.054688 "/>
</g>
</svg>
