<svg width="24" height="24" viewBox="0 0 24 24" fill="none" xmlns="http://www.w3.org/2000/svg">
<path d="M8.01562 15L12 11.0156L15.9844 15L14.5781 16.4531L12.9844 14.8594V18.9844H11.0156V14.8594L9.42188 16.4062L8.01562 15ZM18 20.0156V9H12.9844V3.98438H6V20.0156H18ZM14.0156 2.01562L20.0156 8.01562V20.0156C20.0156 20.5469 19.8125 21.0156 19.4062 21.4219C19 21.7969 18.5312 21.9844 18 21.9844H6C5.46875 21.9844 5 21.7969 4.59375 21.4219C4.1875 21.0156 3.98438 20.5469 3.98438 20.0156L4.03125 3.98438C4.03125 3.45313 4.21875 3 4.59375 2.625C5 2.21875 5.46875 2.01562 6 2.01562H14.0156Z" fill="black" fill-opacity="0.54"/>
</svg>
