<svg width="56" height="36" viewBox="0 0 56 36" fill="none" xmlns="http://www.w3.org/2000/svg">
<path d="M37.9609 20.4609C40.1484 20.4609 42.5312 20.7734 45.1094 21.3984C47.6875 22.0234 50.0703 23.0391 52.2578 24.4453C54.4453 25.8516 55.5391 27.4531 55.5391 29.25V35.4609H40.5391V29.25C40.5391 25.8125 38.8984 22.9219 35.6172 20.5781C36.1641 20.5 36.9453 20.4609 37.9609 20.4609ZM10.8906 21.3984C13.4688 20.7734 15.8516 20.4609 18.0391 20.4609C20.2266 20.4609 22.6094 20.7734 25.1875 21.3984C27.7656 22.0234 30.1094 23.0391 32.2188 24.4453C34.4062 25.8516 35.5 27.4531 35.5 29.25V35.4609H0.460938V29.25C0.460938 27.4531 1.55469 25.8516 3.74219 24.4453C5.92969 23.0391 8.3125 22.0234 10.8906 21.3984ZM23.1953 13.3125C21.7891 14.7969 20.0703 15.5391 18.0391 15.5391C16.0078 15.5391 14.25 14.7969 12.7656 13.3125C11.2812 11.8281 10.5391 10.0703 10.5391 8.03906C10.5391 6.00781 11.2812 4.25 12.7656 2.76562C14.25 1.28125 16.0078 0.539062 18.0391 0.539062C20.0703 0.539062 21.7891 1.28125 23.1953 2.76562C24.6797 4.25 25.4219 6.00781 25.4219 8.03906C25.4219 10.0703 24.6797 11.8281 23.1953 13.3125ZM43.2344 13.3125C41.75 14.7969 39.9922 15.5391 37.9609 15.5391C35.9297 15.5391 34.1719 14.7969 32.6875 13.3125C31.2031 11.8281 30.4609 10.0703 30.4609 8.03906C30.4609 6.00781 31.2031 4.25 32.6875 2.76562C34.1719 1.28125 35.9297 0.539062 37.9609 0.539062C39.9922 0.539062 41.75 1.28125 43.2344 2.76562C44.7188 4.25 45.4609 6.00781 45.4609 8.03906C45.4609 10.0703 44.7188 11.8281 43.2344 13.3125Z" fill="#757575"/>
</svg>
