<svg width="48" height="48" viewBox="0 0 48 48" fill="none" xmlns="http://www.w3.org/2000/svg">
<g clip-path="url(#clip0_366_36187)">
<rect width="48" height="48" rx="24" fill="white"/>
<path d="M20.0384 20.5794C27.7012 14.3795 38.751 12.2719 44.8812 12.1493C41.9941 7.06713 37.3524 3.21282 31.8265 1.30912C26.3007 -0.59459 20.2703 -0.416937 14.8661 1.80876C9.46194 4.03446 5.05513 8.15534 2.47207 13.3987C-0.111004 18.642 -0.692921 24.6476 0.835433 30.2894L12.5059 16.5406H13.3641L14.6591 25.7372C16.287 23.8518 18.0823 22.1178 20.0231 20.5565L20.0384 20.5794ZM44.3525 30.1821C44.3608 30.3892 44.3271 30.5958 44.2533 30.7894C44.1796 30.983 44.0673 31.1597 43.9234 31.3087C43.7774 31.4619 43.6013 31.5832 43.4061 31.665C43.2109 31.7468 43.0009 31.7873 42.7893 31.7839H42.023C41.8052 31.8162 41.5829 31.797 41.3739 31.7279C41.1648 31.6589 40.9749 31.5418 40.8192 31.3861C40.6635 31.2304 40.5465 31.0404 40.4774 30.8313C40.4083 30.6223 40.3892 30.3999 40.4215 30.1821H41.2261C41.2227 30.2281 41.2227 30.2742 41.2261 30.3201C41.2216 30.4179 41.2426 30.5152 41.2869 30.6025C41.3312 30.6898 41.3974 30.7641 41.479 30.8182C41.6435 30.9309 41.8389 30.9898 42.0383 30.9868C42.1505 30.9968 42.2634 30.9836 42.3702 30.948C42.477 30.9124 42.5753 30.8552 42.659 30.7799C42.7912 30.6068 42.8565 30.3919 42.8429 30.1745C42.8446 30.0687 42.8244 29.9636 42.7835 29.866C42.7426 29.7684 42.682 29.6804 42.6054 29.6074L40.8583 27.6991C40.5643 27.394 40.3972 26.9885 40.3908 26.5648V26.1663C40.3864 25.9553 40.4257 25.7456 40.5061 25.5504C40.5866 25.3552 40.7064 25.1788 40.8583 25.0321C41.0043 24.8789 41.1804 24.7576 41.3756 24.6758C41.5708 24.594 41.7808 24.5535 41.9924 24.5569H42.7586C43.7625 24.5569 44.2912 25.0934 44.3602 26.1663H43.5939C43.5249 25.6222 43.272 25.354 42.8276 25.354C42.5944 25.3371 42.3637 25.4113 42.1839 25.5609C42.1079 25.6409 42.05 25.7365 42.0143 25.841C41.9786 25.9455 41.9659 26.0565 41.977 26.1663C41.9814 26.3772 42.0632 26.5791 42.2069 26.7334L43.9234 28.6417C44.2136 28.9493 44.38 29.3532 44.3908 29.776V30.1821H44.3525ZM37.2491 30.1821C37.2471 30.6063 37.0777 31.0126 36.7778 31.3125C36.4779 31.6124 36.0717 31.7818 35.6476 31.7839H34.843C34.6252 31.8162 34.4029 31.797 34.1938 31.7279C33.9848 31.6589 33.7948 31.5418 33.6391 31.3861C33.4835 31.2304 33.3664 31.0404 33.2974 30.8313C33.2283 30.6223 33.2091 30.3999 33.2414 30.1821H34.0077C34.0043 30.2281 34.0043 30.2742 34.0077 30.3201C34.0033 30.4179 34.0243 30.5152 34.0686 30.6025C34.1129 30.6898 34.179 30.7641 34.2606 30.8182C34.4252 30.9309 34.6206 30.9898 34.82 30.9868C34.9311 30.9991 35.0435 30.987 35.1494 30.9513C35.2553 30.9155 35.3521 30.857 35.433 30.7799C35.5652 30.6068 35.6305 30.3919 35.6169 30.1745C35.6186 30.0687 35.5984 29.9636 35.5575 29.866C35.5166 29.7684 35.456 29.6804 35.3794 29.6074L33.6782 27.6991C33.3842 27.394 33.2171 26.9885 33.2108 26.5648V26.1663C33.2108 25.7408 33.3793 25.3326 33.6794 25.031C33.9795 24.7294 34.3869 24.559 34.8123 24.5569H35.6476C36.6514 24.5569 37.1801 25.0934 37.2491 26.1663H36.4828C36.4138 25.6222 36.161 25.354 35.7165 25.354C35.4833 25.3371 35.2526 25.4113 35.0728 25.5609C34.9968 25.6409 34.9389 25.7365 34.9032 25.841C34.8675 25.9455 34.8548 26.0565 34.8659 26.1663C34.8694 26.3789 34.9544 26.5819 35.1035 26.7334L36.8046 28.6417C37.0973 28.9477 37.2642 29.3526 37.2721 29.776L37.2491 30.1821ZM30.1916 31.6459H26.253V24.5799H30.1916V25.3463H27.8315V27.7374H29.41V28.5038H27.8315V30.8795H30.1916V31.6459ZM48 23.9822C47.9958 19.8858 46.9404 15.859 44.9349 12.2873C39.1878 13.5978 33.3027 15.7053 28.7357 18.8934C23.5863 22.4877 20.0078 26.9863 18.8813 30.7952L18.797 31.0481L18.6361 31.6459H10.6591L9.44076 22.1582L1.27988 31.7302C3.11213 37.1148 6.79673 41.6736 11.6769 44.5941C16.5571 47.5147 22.3156 48.6071 27.9261 47.6766C33.5366 46.7462 38.6345 43.8533 42.3109 39.5138C45.9874 35.1742 48.0035 29.67 48 23.9822Z" fill="#00195F"/>
</g>
<defs>
<clipPath id="clip0_366_36187">
<rect width="48" height="48" fill="white"/>
</clipPath>
</defs>
</svg>
